<svg width="74" height="50" viewBox="0 0 74 50" fill="none" xmlns="http://www.w3.org/2000/svg">
<path d="M38.9651 25.6151C38.9651 38.6494 30.2938 48.8716 19.9826 48.8716C9.67137 48.8716 1 38.6494 1 25.6151C1 12.5809 9.67137 2.35864 19.9826 2.35864C30.2938 2.35864 38.9651 12.5809 38.9651 25.6151Z" fill="black" stroke="white" stroke-width="2"/>
<path d="M73.0001 24.5126C73.0001 37.547 64.3287 47.7693 54.0175 47.7693C43.7063 47.7693 35.0349 37.547 35.0349 24.5126C35.0349 11.4782 43.7063 1.25586 54.0175 1.25586C64.3287 1.25586 73.0001 11.4782 73.0001 24.5126Z" fill="black" stroke="white" stroke-width="2"/>
<ellipse cx="23.0767" cy="35.0974" rx="7.73519" ry="9.37183" fill="white"/>
<ellipse cx="57.1116" cy="35.0974" rx="7.73518" ry="9.37183" fill="white"/>
</svg>
